PathFileType	4	(X/Y/Z)	RBDS020static.trc
DataRate	CameraRate	NumFrames	NumMarkers	Units	OrigDataRate	OrigDataStartFrame	OrigNumFrames
150.000000	150.000000	4	48	mm	150.000000	18	150
Frame#	Time	L.Ankle			L.Ankle.Medial			L.ASIS			L.GTR			L.Heel.Bottom			L.Heel.Lateral			L.Heel.Top			L.HF			L.Iliac.Crest			L.Knee			L.Knee.Medial			L.MT1			L.MT2			L.MT5			L.PSIS			L.Shank.Bottom.Lateral			L.Shank.Bottom.Medial			L.Shank.Top.Lateral			L.Shank.Top.Medial			L.Thigh.Bottom.Lateral			L.Thigh.Bottom.Medial			L.Thigh.Top.Lateral			L.Thigh.Top.Medial			L.TT			R.Ankle			R.Ankle.Medial			R.ASIS			R.GTR			R.Heel.Bottom			R.Heel.Lateral			R.Heel.Top			R.HF			R.Iliac.Crest			R.Knee			R.Knee.Medial			R.MT1			R.MT2			R.MT5			R.PSIS			R.Shank.Bottom.Lateral			R.Shank.Bottom.Medial			R.Shank.Top.Lateral			R.Shank.Top.Medial			R.Thigh.Bottom.Lateral			R.Thigh.Bottom.Medial			R.Thigh.Top.Lateral			R.Thigh.Top.Medial			R.TT			
		X1	Y1	Z1	X2	Y2	Z2	X3	Y3	Z3	X4	Y4	Z4	X5	Y5	Z5	X6	Y6	Z6	X7	Y7	Z7	X8	Y8	Z8	X9	Y9	Z9	X10	Y10	Z10	X11	Y11	Z11	X12	Y12	Z12	X13	Y13	Z13	X14	Y14	Z14	X15	Y15	Z15	X16	Y16	Z16	X17	Y17	Z17	X18	Y18	Z18	X19	Y19	Z19	X20	Y20	Z20	X21	Y21	Z21	X22	Y22	Z22	X23	Y23	Z23	X24	Y24	Z24	X25	Y25	Z25	X26	Y26	Z26	X27	Y27	Z27	X28	Y28	Z28	X29	Y29	Z29	X30	Y30	Z30	X31	Y31	Z31	X32	Y32	Z32	X33	Y33	Z33	X34	Y34	Z34	X35	Y35	Z35	X36	Y36	Z36	X37	Y37	Z37	X38	Y38	Z38	X39	Y39	Z39	X40	Y40	Z40	X41	Y41	Z41	X42	Y42	Z42	X43	Y43	Z43	X44	Y44	Z44	X45	Y45	Z45	X46	Y46	Z46	X47	Y47	Z47	X48	Y48	Z48	

19	0.12	705.10400390625	110.4454650878906	1037.604614257813	734.6709594726563	116.6498031616211	1116.10986328125	838.347412109375	1044.961059570313	1098.91064453125	761.740966796875	937.3060913085938	1040.719482421875	638.834228515625	39.26157379150391	1085.90771484375	661.9964599609375	61.94860076904297	1042.443237304688	647.24658203125	87.29391479492188	1085.569091796875	759.8463745117188	481.976806640625	1033.77197265625	772.38037109375	1090.760375976563	1072.54443359375	757.8382568359375	540.1832885742188	1044.96337890625	762.8265991210938	523.5703125	1155.339233398438	857.3229370117188	62.00692367553711	1118.173095703125	864.48828125	68.88749694824219	1074.6552734375	823.568359375	48.74491882324219	1011.354064941406	677.999755859375	1070.476684570313	1179.747924804688	713.6241455078125	186.3949127197266	1030.572631835938	675.2686767578125	189.9683380126953	1070.27783203125	711.5092163085938	266.6436462402344	1022.427124023438	675.4332885742188	270.9158020019531	1062.275024414063	760.265869140625	714.5943603515625	1024.852661132813	702.2813720703125	710.1995239257813	1069.098388671875	750.2645263671875	824.1525268554688	1024.739990234375	697.8892822265625	819.3897094726563	1070.731567382813	810.8265380859375	448.1562805175781	1079.23486328125	703.0962524414063	106.4699020385742	1409.586669921875	728.9798583984375	119.7994537353516	1329.818237304688	850.6527709960938	1033.5263671875	1342.5654296875	780.4505004882813	938.676025390625	1392.18408203125	633.7283325195313	40.2901611328125	1367.878173828125	660.9752197265625	57.77555465698242	1411.3857421875	641.0502319335938	82.876220703125	1367.321044921875	742.029541015625	482.7095336914063	1402.365234375	795.7003784179688	1084.745971679688	1370.780639648438	743.4320678710938	541.0350952148438	1393.116821289063	756.6525268554688	525.7446899414063	1281.37158203125	845.5863647460938	59.96365737915039	1329.490112304688	860.8562622070313	74.53733062744141	1376.41552734375	825.3715209960938	50.86407089233398	1439.607421875	684.96630859375	1070.8212890625	1274.082153320313	710.38427734375	202.9875030517578	1416.14208984375	669.52001953125	208.3223724365234	1385.350341796875	713.99267578125	287.636474609375	1423.58740234375	669.54931640625	288.9090881347656	1393.485107421875	731.3270874023438	677.1187133789063	1398.442993164063	685.256103515625	675.1531982421875	1343.869750976563	726.643798828125	787.7357788085938	1396.586547851563	684.117431640625	785.1177978515625	1342.897705078125	797.985107421875	452.2883911132813	1351.075073242188	
20	0.1266666666666667	705.0996704101563	110.4573211669922	1037.593139648438	734.6638793945313	116.6480407714844	1116.117065429688	838.3428955078125	1044.95654296875	1098.905151367188	761.7291870117188	937.30712890625	1040.710205078125	638.8289794921875	39.26747131347656	1085.9052734375	661.9945678710938	61.95240020751953	1042.438110351563	647.2371215820313	87.29029083251953	1085.556030273438	759.82421875	481.9898986816406	1033.775268554688	772.3748779296875	1090.759521484375	1072.524047851563	757.830810546875	540.18212890625	1044.96435546875	762.8046875	523.5783081054688	1155.337158203125	857.3143310546875	62.00711822509766	1118.181884765625	864.487060546875	68.88339233398438	1074.648681640625	823.5598754882813	48.75109100341797	1011.358825683594	677.984130859375	1070.483154296875	1179.742309570313	713.6207275390625	186.3880157470703	1030.577880859375	675.258544921875	189.9628753662109	1070.276123046875	711.4942016601563	266.6493225097656	1022.423461914063	675.4344482421875	270.9119567871094	1062.267211914063	760.26513671875	714.5962524414063	1024.841552734375	702.2704467773438	710.2039184570313	1069.093383789063	750.2625732421875	824.146240234375	1024.740112304688	697.8681030273438	819.385986328125	1070.72119140625	810.8052368164063	448.1519165039063	1079.246337890625	703.0872192382813	106.4589462280273	1409.589965820313	728.9993286132813	119.8033599853516	1329.830810546875	850.6467895507813	1033.526489257813	1342.560791015625	780.4379272460938	938.6681518554688	1392.178466796875	633.7213745117188	40.29634094238281	1367.871704101563	660.9801025390625	57.76794815063477	1411.386108398438	641.0416870117188	82.88172149658203	1367.328247070313	742.0167846679688	482.7002563476563	1402.353759765625	795.68701171875	1084.733520507813	1370.788330078125	743.423583984375	541.0291748046875	1393.107421875	756.650634765625	525.7481079101563	1281.367431640625	845.5786743164063	59.97031021118164	1329.480224609375	860.8479614257813	74.54560852050781	1376.414184570313	825.3775634765625	50.86757278442383	1439.603637695313	684.9610595703125	1070.830688476563	1274.085205078125	710.3797607421875	202.9806060791016	1416.138549804688	669.517578125	208.315185546875	1385.337036132813	713.9864501953125	287.6331787109375	1423.59326171875	669.5460815429688	288.9085083007813	1393.484130859375	731.3238525390625	677.1152954101563	1398.444580078125	685.2400512695313	675.1497802734375	1343.867431640625	726.6321411132813	787.7380981445313	1396.576782226563	684.106201171875	785.1129760742188	1342.888427734375	797.9754638671875	452.2838745117188	1351.081176757813	
21	0.1333333333333333	705.0911865234375	110.4540176391602	1037.609497070313	734.6572875976563	116.6508712768555	1116.116577148438	838.3357543945313	1044.953002929688	1098.909545898438	761.7194213867188	937.3131103515625	1040.711181640625	638.8216552734375	39.26361846923828	1085.906127929688	661.9937744140625	61.95378494262695	1042.438720703125	647.2391357421875	87.28704071044922	1085.564453125	759.8290405273438	481.9799194335938	1033.777954101563	772.3714599609375	1090.770629882813	1072.528076171875	757.811767578125	540.1824340820313	1044.962646484375	762.77392578125	523.5790405273438	1155.332641601563	857.3126831054688	62.01033401489258	1118.1806640625	864.4750366210938	68.89945220947266	1074.654174804688	823.5548706054688	48.75215530395508	1011.355102539063	677.9743041992188	1070.489013671875	1179.739501953125	713.615234375	186.3938598632813	1030.577392578125	675.2545776367188	189.9683685302734	1070.277221679688	711.481201171875	266.6433715820313	1022.430480957031	675.4216918945313	270.9212341308594	1062.272094726563	760.2506103515625	714.5980224609375	1024.835571289063	702.2543334960938	710.2050170898438	1069.096923828125	750.256591796875	824.147705078125	1024.735961914063	697.8529052734375	819.3873901367188	1070.723388671875	810.8013916015625	448.1543579101563	1079.22802734375	703.0908203125	106.46240234375	1409.58642578125	728.982666015625	119.8035888671875	1329.823852539063	850.6401977539063	1033.51953125	1342.55029296875	780.4203491210938	938.6649780273438	1392.183349609375	633.7246704101563	40.3016357421875	1367.872680664063	660.97412109375	57.77322387695313	1411.385498046875	641.0462646484375	82.86907196044922	1367.32373046875	742.012939453125	482.6973266601563	1402.363159179688	795.6757202148438	1084.726318359375	1370.795166015625	743.4114990234375	541.0279541015625	1393.105712890625	756.6304931640625	525.7536010742188	1281.368286132813	845.5803833007813	59.96527481079102	1329.473754882813	860.85009765625	74.54154968261719	1376.409545898438	825.3721313476563	50.86256408691406	1439.59912109375	684.9456176757813	1070.823120117188	1274.08251953125	710.3792114257813	202.9844665527344	1416.136596679688	669.51611328125	208.3140411376953	1385.337280273438	713.9825439453125	287.6336975097656	1423.58984375	669.5357666015625	288.9072570800781	1393.490966796875	731.3006591796875	677.1196899414063	1398.438110351563	685.2311401367188	675.146728515625	1343.860717773438	726.6249389648438	787.7333374023438	1396.57080078125	684.0989990234375	785.1116333007813	1342.886352539063	797.9739990234375	452.2955627441406	1351.076416015625	
22	0.14	705.0839233398438	110.4613647460938	1037.58984375	734.659423828125	116.6464080810547	1116.11865234375	838.3346557617188	1044.955078125	1098.901611328125	761.7178344726563	937.3191528320313	1040.710571289063	638.8300170898438	39.2551155090332	1085.900024414063	661.982421875	61.96079254150391	1042.435302734375	647.23828125	87.29141998291016	1085.567016601563	759.8177490234375	481.9805603027344	1033.774658203125	772.3688354492188	1090.756591796875	1072.538696289063	757.8137817382813	540.1773681640625	1044.95703125	762.7745971679688	523.5699462890625	1155.337036132813	857.3178100585938	62.01704406738281	1118.174682617188	864.4780883789063	68.90023040771484	1074.653564453125	823.55078125	48.75423431396484	1011.35546875	677.9755859375	1070.490234375	1179.743286132813	713.6141967773438	186.3940124511719	1030.574462890625	675.2526245117188	189.9721069335938	1070.289794921875	711.48388671875	266.6413269042969	1022.426208496094	675.4119262695313	270.9127807617188	1062.267578125	760.2313842773438	714.6051635742188	1024.839233398438	702.2406005859375	710.2040405273438	1069.091064453125	750.2460327148438	824.1512451171875	1024.73779296875	697.8312377929688	819.3923950195313	1070.713256835938	810.7978515625	448.1606750488281	1079.229125976563	703.0939331054688	106.4577484130859	1409.585571289063	728.9758911132813	119.7979507446289	1329.816040039063	850.6322631835938	1033.5283203125	1342.547607421875	780.414306640625	938.6707153320313	1392.1748046875	633.721435546875	40.29204559326172	1367.869384765625	660.9729614257813	57.77006530761719	1411.385131835938	641.0353393554688	82.87627410888672	1367.332275390625	741.9932250976563	482.7043762207031	1402.362915039063	795.6730346679688	1084.7158203125	1370.798461914063	743.3972778320313	541.029541015625	1393.114990234375	756.6143188476563	525.7518920898438	1281.370483398438	845.571044921875	59.97023010253906	1329.490600585938	860.8518676757813	74.54578399658203	1376.405029296875	825.3809204101563	50.86774063110352	1439.599365234375	684.93359375	1070.829467773438	1274.083374023438	710.3760375976563	202.982421875	1416.140380859375	669.5081176757813	208.3087005615234	1385.348876953125	713.9776000976563	287.6357116699219	1423.585693359375	669.5379028320313	288.9071350097656	1393.49267578125	731.2952270507813	677.11376953125	1398.439331054688	685.221923828125	675.1494140625	1343.856689453125	726.6124267578125	787.7372436523438	1396.5615234375	684.091796875	785.112548828125	1342.876586914063	797.9647216796875	452.2952270507813	1351.070068359375	
